# xmcd
#
# Track frame offsets:
#	150
#	18206
#	30246
#	46443
#	65934
#	82009
#	101484
#	119396
#	133252
#	151322
#	163456
#	179602
#	199170
#	215366
#	235126
#	253162
#
# Disc length: 3549
#
# Revision: 1
# Processed by: cddbd v1.5.1PL2 Copyright (c) Steve Scherf et al.
# Submitted via: kTunes Lite (development) 1.0patch43.35
#
DISCID=e80ddb10
DTITLE=Kenny Rogers - SDK 9025
DYEAR=2005
DGENRE=Karaoke
TTITLE0=Kenny Rogers - Lady w/ Vocals
TTITLE1=Kenny Rogers - Reuben James w/ Vocals
TTITLE2=Kenny Rogers - The Gambler w/ Vocals
TTITLE3=Kenny Rogers - She Believes in Me w/ Vocals
TTITLE4=Kenny Rogers - Lucille w/ Vocals
TTITLE5=Kenny Rogers - Coward of the County w/ Vocals
TTITLE6=Kenny Rogers - You Decorated My Life w/ Vocals
TTITLE7=Kenny Rogers - Ruby, Don't Take Your Love To Town w/ Vocals
TTITLE8=Kenny Rogers - Lady
TTITLE9=Kenny Rogers - Reuben James
TTITLE10=Kenny Rogers - The Gambler
TTITLE11=Kenny Rogers - She Believes in Me
TTITLE12=Kenny Rogers - Lucille
TTITLE13=Kenny Rogers - Coward ofthe County
TTITLE14=Kenny Rogers - You Decorated My Life
TTITLE15=Kenny Rogers - Ruby, Don't Take Your Love To Town
EXTD=
EXTT0=
EXTT1=
EXTT2=
EXTT3=
EXTT4=
EXTT5=
EXTT6=
EXTT7=
EXTT8=
EXTT9=
EXTT10=
EXTT11=
EXTT12=
EXTT13=
EXTT14=
EXTT15=
PLAYORDER=
